<?xml version="1.0" encoding="UTF-8" standalone="no"?>
<!DOCTYPE svg PUBLIC "-//W3C//DTD SVG 1.1//EN" "http://www.w3.org/Graphics/SVG/1.1/DTD/svg11.dtd">
<svg xmlns="http://www.w3.org/2000/svg" version="1.1" viewBox="0.00 0.00 911.00 910.00">
<g stroke-width="2.00" fill="none" stroke-linecap="butt">
<path stroke="#791317" vector-effect="non-scaling-stroke" d="
  M 605.99 380.41
  Q 613.97 396.38 616.21 404.99
  C 618.45 413.60 620.21 421.04 629.90 421.04
  Q 738.01 420.97 846.12 421.00
  C 851.25 421.00 854.94 419.91 854.27 413.76
  Q 839.16 275.18 743.13 176.37
  Q 685.03 116.59 610.84 85.11
  Q 500.33 38.22 381.02 61.20
  Q 371.27 63.08 361.53 65.62
  C 273.67 88.55 189.86 138.53 134.93 211.23
  C 91.22 269.07 67.41 336.79 56.62 408.77
  C 55.75 414.56 56.15 420.99 63.75 420.99
  Q 167.50 421.01 271.25 420.75
  C 279.77 420.73 287.32 420.59 291.20 411.49
  C 294.37 404.08 297.54 393.63 301.02 385.98
  C 323.55 336.49 366.77 301.62 420.26 290.63
  C 469.43 280.53 517.75 289.91 557.48 321.03
  Q 588.41 345.24 605.99 380.41"
/>
<path stroke="#828383" vector-effect="non-scaling-stroke" d="
  M 560.22 401.42
  C 535.98 354.87 484.10 329.49 432.99 339.19
  C 380.78 349.08 343.09 392.30 337.69 444.78
  C 327.67 542.02 436.59 607.52 518.50 555.06
  C 570.01 522.07 588.75 456.18 560.22 401.42"
/>
<path stroke="#828383" vector-effect="non-scaling-stroke" d="
  M 505.75 616.49
  C 435.33 637.97 357.42 612.13 315.85 550.91
  Q 298.93 526.00 291.49 496.80
  Q 289.63 489.52 281.75 489.54
  Q 232.69 489.71 70.13 489.60
  C 58.78 489.60 54.24 492.05 55.88 503.75
  Q 59.93 532.75 67.53 560.98
  Q 98.63 676.42 188.34 754.90
  Q 217.42 780.33 249.42 800.07
  C 321.66 844.63 403.60 863.65 488.45 855.31
  Q 524.23 851.80 554.04 844.29
  C 713.39 804.18 830.26 673.10 853.25 510.26
  Q 854.03 504.76 854.57 496.89
  C 854.79 493.59 854.33 490.38 850.77 489.73
  C 845.03 488.68 835.71 489.62 830.42 489.61
  Q 734.59 489.60 638.76 489.61
  C 631.92 489.61 621.39 487.31 619.05 496.28
  C 604.19 553.19 561.83 599.38 505.75 616.49"
/>
<path stroke="#828383" vector-effect="non-scaling-stroke" d="
  M 513.5844 453.4387
  A 58.49 58.39 -2.0 0 0 453.0922 397.1256
  A 58.49 58.39 -2.0 0 0 396.6756 457.5213
  A 58.49 58.39 -2.0 0 0 457.1678 513.8344
  A 58.49 58.39 -2.0 0 0 513.5844 453.4387"
/>
</g>
<path fill="#050707" d="
  M 467.48 910.00
  L 444.41 910.00
  Q 292.81 904.91 174.39 813.40
  C 133.66 781.93 98.09 742.49 70.82 699.67
  Q 4.79 596.04 0.00 471.43
  L 0.00 440.74
  Q 4.59 319.32 67.08 217.33
  C 144.44 91.07 281.79 8.48 430.21 1.40
  C 568.98 -5.23 700.99 48.46 793.92 151.46
  C 859.52 224.17 900.94 318.47 908.67 416.45
  Q 920.51 566.55 843.21 693.43
  C 817.91 734.97 783.95 774.27 745.32 805.91
  Q 625.00 904.48 467.48 910.00
  Z
  M 605.99 380.41
  Q 613.97 396.38 616.21 404.99
  C 618.45 413.60 620.21 421.04 629.90 421.04
  Q 738.01 420.97 846.12 421.00
  C 851.25 421.00 854.94 419.91 854.27 413.76
  Q 839.16 275.18 743.13 176.37
  Q 685.03 116.59 610.84 85.11
  Q 500.33 38.22 381.02 61.20
  Q 371.27 63.08 361.53 65.62
  C 273.67 88.55 189.86 138.53 134.93 211.23
  C 91.22 269.07 67.41 336.79 56.62 408.77
  C 55.75 414.56 56.15 420.99 63.75 420.99
  Q 167.50 421.01 271.25 420.75
  C 279.77 420.73 287.32 420.59 291.20 411.49
  C 294.37 404.08 297.54 393.63 301.02 385.98
  C 323.55 336.49 366.77 301.62 420.26 290.63
  C 469.43 280.53 517.75 289.91 557.48 321.03
  Q 588.41 345.24 605.99 380.41
  Z
  M 560.22 401.42
  C 535.98 354.87 484.10 329.49 432.99 339.19
  C 380.78 349.08 343.09 392.30 337.69 444.78
  C 327.67 542.02 436.59 607.52 518.50 555.06
  C 570.01 522.07 588.75 456.18 560.22 401.42
  Z
  M 505.75 616.49
  C 435.33 637.97 357.42 612.13 315.85 550.91
  Q 298.93 526.00 291.49 496.80
  Q 289.63 489.52 281.75 489.54
  Q 232.69 489.71 70.13 489.60
  C 58.78 489.60 54.24 492.05 55.88 503.75
  Q 59.93 532.75 67.53 560.98
  Q 98.63 676.42 188.34 754.90
  Q 217.42 780.33 249.42 800.07
  C 321.66 844.63 403.60 863.65 488.45 855.31
  Q 524.23 851.80 554.04 844.29
  C 713.39 804.18 830.26 673.10 853.25 510.26
  Q 854.03 504.76 854.57 496.89
  C 854.79 493.59 854.33 490.38 850.77 489.73
  C 845.03 488.68 835.71 489.62 830.42 489.61
  Q 734.59 489.60 638.76 489.61
  C 631.92 489.61 621.39 487.31 619.05 496.28
  C 604.19 553.19 561.83 599.38 505.75 616.49
  Z"
/>
<path fill="#ec1f27" d="
  M 605.99 380.41
  Q 588.41 345.24 557.48 321.03
  C 517.75 289.91 469.43 280.53 420.26 290.63
  C 366.77 301.62 323.55 336.49 301.02 385.98
  C 297.54 393.63 294.37 404.08 291.20 411.49
  C 287.32 420.59 279.77 420.73 271.25 420.75
  Q 167.50 421.01 63.75 420.99
  C 56.15 420.99 55.75 414.56 56.62 408.77
  C 67.41 336.79 91.22 269.07 134.93 211.23
  C 189.86 138.53 273.67 88.55 361.53 65.62
  Q 371.27 63.08 381.02 61.20
  Q 500.33 38.22 610.84 85.11
  Q 685.03 116.59 743.13 176.37
  Q 839.16 275.18 854.27 413.76
  C 854.94 419.91 851.25 421.00 846.12 421.00
  Q 738.01 420.97 629.90 421.04
  C 620.21 421.04 618.45 413.60 616.21 404.99
  Q 613.97 396.38 605.99 380.41
  Z"
/>
<path fill="#ffffff" d="
  M 432.99 339.19
  C 484.10 329.49 535.98 354.87 560.22 401.42
  C 588.75 456.18 570.01 522.07 518.50 555.06
  C 436.59 607.52 327.67 542.02 337.69 444.78
  C 343.09 392.30 380.78 349.08 432.99 339.19
  Z
  M 513.5844 453.4387
  A 58.49 58.39 -2.0 0 0 453.0922 397.1256
  A 58.49 58.39 -2.0 0 0 396.6756 457.5213
  A 58.49 58.39 -2.0 0 0 457.1678 513.8344
  A 58.49 58.39 -2.0 0 0 513.5844 453.4387
  Z"
/>
<ellipse fill="#050707" cx="0.00" cy="0.00" transform="translate(455.13,455.48) rotate(-2.0)" rx="58.49" ry="58.39"/>
<path fill="#ffffff" d="
  M 315.85 550.91
  C 357.42 612.13 435.33 637.97 505.75 616.49
  C 561.83 599.38 604.19 553.19 619.05 496.28
  C 621.39 487.31 631.92 489.61 638.76 489.61
  Q 734.59 489.60 830.42 489.61
  C 835.71 489.62 845.03 488.68 850.77 489.73
  C 854.33 490.38 854.79 493.59 854.57 496.89
  Q 854.03 504.76 853.25 510.26
  C 830.26 673.10 713.39 804.18 554.04 844.29
  Q 524.23 851.80 488.45 855.31
  C 403.60 863.65 321.66 844.63 249.42 800.07
  Q 217.42 780.33 188.34 754.90
  Q 98.63 676.42 67.53 560.98
  Q 59.93 532.75 55.88 503.75
  C 54.24 492.05 58.78 489.60 70.13 489.60
  Q 232.69 489.71 281.75 489.54
  Q 289.63 489.52 291.49 496.80
  Q 298.93 526.00 315.85 550.91
  Z"
/>
</svg>
